_________________________  Visit us at _________________________
  
http://p2pdl.com  ____________________________  http://p2pdl.com


The Coalition 2013 BRRip 720p x264 AAC - PRiSTiNE [P2PDL]
				
Genre: Comedy | Romance
Four women band together to get revenge on four young successful players because the guys mistreated them in some way.
Director: Monica Mingo
Stars: Ricardo Alvarado, Sant'e Andrews, Adrienne Bailon
Rated: Rated R for language and some sexual content

Info:  
http://www.imdb.com/title/tt2040537/

Trailer: 



General
Format                         : MPEG-4
Format profile                 : Base Media / Version 2
Codec ID                       : mp42
File size                      : 539 MiB
Duration                       : 1h 40mn
Overall bit rate mode          : Variable
Movie name                     : The Coalition 2013 BRRip 720p x264 AAC - PRiSTiNE [P2PDL]

Source                         : 720p.BluRay.x264-ROVERS (Thanks)

Video
Format                         : AVC
Width                          : 1 280 pixels
Height                         : 720 pixels
Display aspect ratio           : 16:9
Frame rate mode                : Variable
Frame rate                     : 23.976 fps
Stream size                    : 478 MiB (89%)
Writing library                : x264 core 129

Audio
Format                         : AAC
Bit rate mode                  : Variable
Bit rate                       : 80.0 Kbps
Channel(s)                     : 2 channels
Channel positions              : Front: L R
Sampling rate                  : 48.0 KHz
Stream size                    : 57.4 MiB (11%)

Subtitle                       : Yes ( English)


Screens:
 
http://www.shotpix.com/images/23641957967084358335.jpg 
http://www.shotpix.com/images/12810503623962545255.jpg 
http://www.shotpix.com/images/69973490137971671964.jpg 
http://www.shotpix.com/images/56000045220987661536.jpg 
http://www.shotpix.com/images/58553377730065922055.jpg


Thumbs:
 
http://www.shotpix.com/images/62718340764485059208.jpg

----------------------------------------------------------------------------------------------------


Recommend to you to use latest version of VLC player. Install K-Lite Codec Pack or shark007 codecs
in case of any kind of problem in playback (For non-VLC Media Player users). Alternatively, install
Core AVC codecs, the fastest decoder that there is coupled with Community Center Codec Pack and play
on Windows Media Player Classic. Check sample to be sure.
Enjoy!

Greets to: VYTO, a2zRG, MusiK_KinG, Neon, Kuroyukihime, TorDigger, Ash968, StyLishSaLH and staff members at
ExtraTorrent, TPB, H33T, KAT, 1337x, PublicHD, Ahashare, BTScene, SilverTorrent, LimeTorrents, TorrentMafia,
P2PDL, and all others.

Encoder Notes: Looking For Early Access To Anything You Can Provide DVDScr, R5, DVDR, BluRay, Direct
Audio, Early Music Releases, Seedboxes, Dedicated Servers anything u can provide, Advance / Promo CDs/
DVDs. If You Got anything to offer contact me at "prg@hush.com".